<svg xmlns="http://www.w3.org/2000/svg" role="img" width="32px" height="32px" viewBox="0 0 32 32" aria-label="better business bureau"><title>Better Business Bureau</title><path fill="var(--crate-color-lavender)" d="M25.728 30.226v0.117c0 0.746-0.499 1.363-1.154 1.495-0.23 0.1-0.483 0.155-0.748 0.155h-15.616c-0.396 0-0.765-0.124-1.071-0.335-0.135-0.085-0.255-0.192-0.356-0.318-0.3-0.342-0.482-0.792-0.482-1.282v-28.107c0-1.071 0.858-1.936 1.909-1.936h15.616c1.051 0 1.909 0.871 1.909 1.936v28.107c0 0.057-0.002 0.113-0.007 0.169v0zM25.351 25.421v-23.471c0-0.854-0.688-1.552-1.525-1.552h-15.616c-0.84 0-1.525 0.693-1.525 1.552v23.471h18.666zM8.842 26.68l-0.618 1.64h0.228l0.178-0.491h0.649l0.166 0.491h0.244l-0.595-1.639h-0.251zM9.207 27.648h-0.514l0.265-0.724 0.249 0.724zM10.583 26.636c-0.244 0-0.435 0.084-0.573 0.252-0.128 0.155-0.192 0.353-0.192 0.595 0 0.318 0.085 0.554 0.256 0.706 0.13 0.115 0.29 0.173 0.48 0.173 0.221 0 0.397-0.070 0.527-0.211 0.109-0.117 0.173-0.262 0.192-0.434h-0.217c-0.022 0.108-0.056 0.195-0.102 0.261-0.086 0.126-0.21 0.189-0.374 0.189-0.178 0-0.312-0.060-0.402-0.179s-0.135-0.275-0.135-0.467c0-0.234 0.050-0.408 0.149-0.522s0.23-0.17 0.392-0.17c0.133 0 0.236 0.031 0.309 0.093s0.122 0.145 0.147 0.251h0.217c-0.013-0.139-0.076-0.263-0.191-0.373s-0.276-0.164-0.484-0.164zM12.235 26.636c-0.244 0-0.435 0.084-0.573 0.252-0.128 0.155-0.192 0.353-0.192 0.595 0 0.318 0.085 0.554 0.256 0.706 0.13 0.115 0.29 0.173 0.48 0.173 0.221 0 0.397-0.070 0.527-0.211 0.109-0.117 0.173-0.262 0.192-0.434h-0.217c-0.022 0.108-0.056 0.195-0.102 0.261-0.086 0.126-0.21 0.189-0.374 0.189-0.178 0-0.312-0.060-0.402-0.179s-0.135-0.275-0.135-0.467c0-0.234 0.050-0.408 0.149-0.522s0.23-0.17 0.392-0.17c0.133 0 0.236 0.031 0.309 0.093s0.122 0.145 0.147 0.251h0.217c-0.013-0.139-0.076-0.263-0.191-0.373s-0.276-0.164-0.484-0.164zM13.223 26.68v1.64h0.222v-0.703h0.506c0.091 0 0.158 0.010 0.2 0.030 0.074 0.036 0.114 0.108 0.12 0.215l0.013 0.273c0.003 0.064 0.007 0.107 0.011 0.129s0.010 0.041 0.018 0.055h0.273v-0.037c-0.034-0.015-0.058-0.048-0.072-0.1-0.008-0.030-0.013-0.077-0.016-0.14l-0.008-0.22c-0.004-0.095-0.022-0.164-0.054-0.206s-0.081-0.077-0.145-0.103c0.073-0.038 0.13-0.088 0.17-0.151s0.061-0.143 0.061-0.241c0-0.188-0.077-0.317-0.231-0.387-0.081-0.036-0.184-0.055-0.309-0.055h-0.76zM13.959 27.432h-0.514v-0.56h0.543c0.076 0 0.137 0.011 0.182 0.033 0.085 0.042 0.127 0.122 0.127 0.239 0 0.109-0.030 0.184-0.091 0.225s-0.143 0.063-0.247 0.063zM14.869 26.68v1.64h1.213v-0.195h-0.997v-0.556h0.906v-0.19h-0.906v-0.498h0.98v-0.201h-1.197zM16.384 26.68v1.64h0.663c0.282 0 0.48-0.124 0.595-0.373 0.066-0.141 0.098-0.298 0.098-0.472 0-0.225-0.055-0.41-0.166-0.555-0.124-0.16-0.299-0.24-0.525-0.24h-0.665zM17.004 28.13h-0.397v-1.259h0.394c0.18 0 0.31 0.056 0.39 0.169s0.121 0.27 0.121 0.473c0 0.053-0.006 0.11-0.017 0.172-0.019 0.103-0.051 0.188-0.095 0.254-0.055 0.083-0.126 0.138-0.212 0.167-0.048 0.016-0.11 0.023-0.185 0.023zM18.077 26.68v1.64h0.225v-1.639h-0.225zM19.857 26.68h-1.332v0.195h0.553v1.444h0.226v-1.444h0.553v-0.195zM20.081 26.68v1.64h1.213v-0.195h-0.997v-0.556h0.906v-0.19h-0.906v-0.498h0.98v-0.201h-1.197zM21.596 26.68v1.64h0.663c0.282 0 0.48-0.124 0.595-0.373 0.066-0.141 0.098-0.298 0.098-0.472 0-0.225-0.055-0.41-0.166-0.555-0.124-0.16-0.299-0.24-0.525-0.24h-0.665zM22.216 28.13h-0.397v-1.259h0.394c0.18 0 0.31 0.056 0.39 0.169s0.121 0.27 0.121 0.473c0 0.053-0.006 0.11-0.017 0.172-0.019 0.103-0.051 0.188-0.095 0.254-0.055 0.083-0.126 0.138-0.212 0.167-0.048 0.016-0.11 0.023-0.185 0.023zM10.433 29.18v1.64h0.694c0.216 0 0.374-0.064 0.473-0.192 0.066-0.086 0.099-0.181 0.099-0.287 0-0.126-0.037-0.224-0.111-0.296-0.042-0.040-0.105-0.076-0.189-0.108 0.057-0.029 0.101-0.061 0.132-0.096 0.059-0.066 0.088-0.151 0.088-0.254 0-0.089-0.024-0.167-0.072-0.234-0.081-0.115-0.218-0.172-0.41-0.172h-0.705zM11.055 29.874h-0.404v-0.508h0.397c0.097 0 0.17 0.010 0.219 0.031 0.087 0.037 0.131 0.109 0.131 0.217s-0.041 0.18-0.123 0.221c-0.052 0.026-0.125 0.039-0.219 0.039zM11.13 30.63h-0.479v-0.577h0.441c0.093 0 0.168 0.012 0.225 0.035 0.107 0.043 0.16 0.124 0.16 0.243 0 0.071-0.018 0.131-0.055 0.181-0.058 0.079-0.155 0.118-0.292 0.118zM12.206 29.18h-0.226v0.921c0 0.202 0.027 0.357 0.082 0.465 0.099 0.198 0.287 0.297 0.564 0.297s0.466-0.099 0.565-0.297c0.054-0.109 0.082-0.264 0.082-0.465v-0.921h-0.226v1.013c0 0.118-0.018 0.212-0.055 0.282-0.068 0.129-0.196 0.193-0.384 0.193-0.157 0-0.269-0.060-0.335-0.179-0.045-0.079-0.067-0.178-0.067-0.297v-1.013zM13.762 30.291h-0.209c-0.002 0.177 0.054 0.317 0.17 0.421s0.275 0.156 0.479 0.156c0.175 0 0.329-0.039 0.461-0.117s0.198-0.208 0.198-0.39c0-0.146-0.052-0.257-0.156-0.334-0.060-0.044-0.146-0.078-0.257-0.104l-0.23-0.052c-0.155-0.036-0.254-0.065-0.298-0.089-0.067-0.037-0.101-0.096-0.101-0.176 0-0.073 0.029-0.137 0.086-0.192s0.152-0.083 0.283-0.083c0.162 0 0.277 0.043 0.345 0.128 0.037 0.047 0.060 0.114 0.072 0.202h0.209c0-0.182-0.060-0.315-0.18-0.398s-0.266-0.124-0.438-0.124c-0.187 0-0.331 0.047-0.433 0.142s-0.153 0.215-0.153 0.363c0 0.136 0.052 0.238 0.156 0.307 0.060 0.039 0.163 0.076 0.308 0.108l0.222 0.050c0.121 0.028 0.209 0.060 0.266 0.097s0.084 0.102 0.084 0.191c0 0.119-0.066 0.202-0.199 0.248-0.069 0.024-0.145 0.036-0.228 0.036-0.186 0-0.316-0.054-0.39-0.163-0.039-0.058-0.061-0.134-0.066-0.227zM15.193 29.18v1.64h0.225v-1.639h-0.225zM15.779 29.18v1.64h0.212v-1.327l0.841 1.327h0.249v-1.639h-0.211v1.328l-0.829-1.328h-0.263zM17.452 29.18v1.64h1.213v-0.195h-0.997v-0.556h0.906v-0.19h-0.906v-0.498h0.98v-0.201h-1.197zM19.103 30.291h-0.209c-0.002 0.177 0.054 0.317 0.17 0.421s0.275 0.156 0.479 0.156c0.175 0 0.329-0.039 0.461-0.117s0.198-0.208 0.198-0.39c0-0.146-0.052-0.257-0.156-0.334-0.060-0.044-0.146-0.078-0.257-0.104l-0.23-0.052c-0.155-0.036-0.254-0.065-0.298-0.089-0.067-0.037-0.101-0.096-0.101-0.176 0-0.073 0.029-0.137 0.086-0.192s0.152-0.083 0.283-0.083c0.162 0 0.277 0.043 0.345 0.128 0.037 0.047 0.060 0.114 0.072 0.202h0.209c0-0.182-0.060-0.315-0.18-0.398s-0.266-0.124-0.439-0.124c-0.187 0-0.331 0.047-0.433 0.142s-0.153 0.215-0.153 0.363c0 0.136 0.052 0.238 0.156 0.307 0.060 0.039 0.163 0.076 0.308 0.108l0.222 0.050c0.121 0.028 0.209 0.060 0.266 0.097s0.084 0.102 0.084 0.191c0 0.119-0.066 0.202-0.199 0.248-0.069 0.024-0.145 0.036-0.228 0.036-0.186 0-0.316-0.054-0.39-0.163-0.039-0.058-0.061-0.134-0.066-0.227zM20.629 30.291h-0.209c-0.002 0.177 0.054 0.317 0.17 0.421s0.275 0.156 0.479 0.156c0.175 0 0.329-0.039 0.461-0.117s0.198-0.208 0.198-0.39c0-0.146-0.052-0.257-0.156-0.334-0.060-0.044-0.146-0.078-0.257-0.104l-0.23-0.052c-0.155-0.036-0.254-0.065-0.298-0.089-0.067-0.037-0.101-0.096-0.101-0.176 0-0.073 0.029-0.137 0.086-0.192s0.152-0.083 0.283-0.083c0.162 0 0.277 0.043 0.345 0.128 0.037 0.047 0.060 0.114 0.072 0.202h0.209c0-0.182-0.060-0.315-0.18-0.398s-0.266-0.124-0.439-0.124c-0.187 0-0.331 0.047-0.433 0.142s-0.153 0.215-0.153 0.363c0 0.136 0.052 0.238 0.156 0.307 0.060 0.039 0.163 0.076 0.308 0.108l0.222 0.050c0.121 0.028 0.209 0.060 0.266 0.097s0.084 0.102 0.084 0.191c0 0.119-0.066 0.202-0.199 0.248-0.069 0.024-0.145 0.036-0.228 0.036-0.186 0-0.316-0.054-0.39-0.163-0.039-0.058-0.061-0.134-0.066-0.227zM20.143 15.95l0.293 0.979h-2.174l-0.415 1.35h-3.568l-0.415-1.35h-2.174l0.293-0.979h8.158zM13.315 10.457c0 0 1.030-1.429 1.030-1.436l0.293 0.214c-0.064 0.086-0.093 0.186-0.093 0.286 0 0.029 0 0.050 0.007 0.079 0.021 0.129 0.086 0.236 0.193 0.314l1.952 1.421c0.415 0.307 0.694 0.757 0.772 1.264 0.014 0.1 0.021 0.207 0.021 0.307 0 0.4-0.122 0.793-0.365 1.129l-1.030 1.429-0.293-0.214c0.079-0.1 0.107-0.229 0.086-0.357s-0.086-0.236-0.193-0.314l-1.952-1.421c-0.415-0.307-0.694-0.757-0.772-1.264s0.043-1.014 0.343-1.436zM14.495 4.736l1.566-2.164 0.236 0.171c-0.129 0.186-0.186 0.414-0.15 0.643s0.157 0.429 0.343 0.564l2.96 2.157c0.608 0.443 1.008 1.086 1.123 1.829 0.114 0.736-0.064 1.479-0.5 2.086l-1.931 2.679-0.236-0.171c0.186-0.257 0.286-0.564 0.286-0.879 0-0.079-0.007-0.157-0.021-0.236-0.064-0.393-0.279-0.743-0.601-0.979l-2.453-1.779c-0.608-0.436-1.008-1.086-1.123-1.829-0.021-0.15-0.036-0.3-0.036-0.45 0-0.586 0.186-1.157 0.536-1.643zM9.482 19.093h2.231c0.551 0 0.98 0.15 1.258 0.429 0.222 0.221 0.329 0.493 0.329 0.821v0.014c0 0.543-0.286 0.85-0.629 1.043 0.558 0.214 0.901 0.536 0.901 1.186v0.014c0 0.886-0.715 1.321-1.802 1.321h-2.288v-4.829zM11.492 21.043c0.465 0 0.765-0.15 0.765-0.507v-0.014c0-0.314-0.25-0.493-0.694-0.493h-1.051v1.021h0.98v-0.007zM11.771 22.993c0.465 0 0.751-0.164 0.751-0.521v-0.014c0-0.321-0.243-0.521-0.787-0.521h-1.223v1.064h1.258v-0.007zM14.030 19.093h2.231c0.551 0 0.987 0.15 1.258 0.429 0.222 0.221 0.329 0.493 0.329 0.821v0.014c0 0.543-0.286 0.85-0.629 1.043 0.558 0.214 0.901 0.536 0.901 1.186v0.014c0 0.886-0.715 1.321-1.802 1.321h-2.288v-4.829zM16.039 21.043c0.465 0 0.765-0.15 0.765-0.507v-0.014c0-0.314-0.25-0.493-0.694-0.493h-1.044v1.021h0.972v-0.007zM16.325 22.993c0.465 0 0.751-0.164 0.751-0.521v-0.014c0-0.321-0.243-0.521-0.787-0.521h-1.223v1.064h1.258v-0.007zM18.585 19.093h2.231c0.551 0 0.98 0.15 1.258 0.429 0.222 0.221 0.329 0.493 0.329 0.821v0.014c0 0.543-0.286 0.85-0.629 1.043 0.558 0.214 0.901 0.536 0.901 1.186v0.014c0 0.886-0.715 1.321-1.802 1.321h-2.288v-4.829zM20.594 21.043c0.465 0 0.765-0.15 0.765-0.507v-0.014c0-0.314-0.25-0.493-0.694-0.493h-1.044v1.021h0.972v-0.007zM20.873 22.993c0.465 0 0.751-0.164 0.751-0.521v-0.014c0-0.321-0.243-0.521-0.787-0.521h-1.223v1.064h1.258v-0.007z"></path></svg>