<svg height="36" stroke="none" viewBox="0 0 36 36" width="36" aria-hidden="true" fill="#017848" version="1.1" xmlns="http://www.w3.org/2000/svg"><title id="start-purchase-icon">Start Purchase</title><path d="M35.579 13.748 18.703.247a1.124 1.124 0 0 0-1.406 0L.42 13.747a1.125 1.125 0 0 0 .698 2.003h2.25v19.126A1.126 1.126 0 0 0 4.494 36h27.001a1.125 1.125 0 0 0 1.125-1.125V15.75h2.25a1.125 1.125 0 0 0 .709-2.002Zm-4.084-.248a1.125 1.125 0 0 0-1.125 1.125V33.75H5.619V14.625A1.126 1.126 0 0 0 4.494 13.5h-.169l13.67-10.936L31.662 13.5h-.168Z" fill="#017848"></path><path d="M16.8 13v2.374h-1.2a3.607 3.607 0 0 0-3.118 1.78 3.527 3.527 0 0 0 0 3.56 3.607 3.607 0 0 0 3.118 1.78h4.8c.429 0 .825.227 1.04.594.214.367.214.82 0 1.187-.215.367-.611.593-1.04.593h-4.8c-.318 0-.624-.125-.849-.347a1.18 1.18 0 0 1-.351-.84H12c0 .945.38 1.85 1.054 2.518a3.622 3.622 0 0 0 2.546 1.043h1.2v2.373h2.4v-2.373h1.2a3.607 3.607 0 0 0 3.118-1.78 3.526 3.526 0 0 0 0-3.56A3.607 3.607 0 0 0 20.4 20.12h-4.8c-.429 0-.825-.226-1.04-.593a1.176 1.176 0 0 1 0-1.187c.215-.367.611-.594 1.04-.594h4.8c.318 0 .624.125.849.348.225.222.351.524.351.84H24c0-.945-.38-1.85-1.054-2.519a3.621 3.621 0 0 0-2.546-1.042h-1.2V13h-2.4Z" fill="#017848"></path></svg>