<svg height="36" stroke="none" viewBox="0 0 36 36" width="36" aria-hidden="true" fill="#017848" version="1.1" xmlns="http://www.w3.org/2000/svg"><title id="start-cashout-refinance-icon">Start Heloc</title><path d="M2.25 18a15.75 15.75 0 0 1 31.5 0H36a18 18 0 1 0-18 18v-2.25A15.75 15.75 0 0 1 2.25 18Z" fill="#017848"></path><path d="M23.143 20.204c0-.877-.352-1.718-.98-2.338a3.363 3.363 0 0 0-2.363-.968h-4.457c-.398 0-.766-.21-.965-.551a1.092 1.092 0 0 1 0-1.102c.199-.341.567-.551.965-.551H19.8c.296 0 .579.116.788.323.209.206.326.487.326.779h2.229c0-.877-.352-1.718-.98-2.338a3.363 3.363 0 0 0-2.363-.968h-1.114v-2.204h-2.229v2.204h-1.114a3.35 3.35 0 0 0-2.895 1.653 3.275 3.275 0 0 0 0 3.306 3.35 3.35 0 0 0 2.895 1.653H19.8c.398 0 .766.21.965.551.199.341.199.761 0 1.102-.199.341-.567.551-.965.551h-4.457a1.12 1.12 0 0 1-.788-.323 1.096 1.096 0 0 1-.326-.779H12c0 .877.352 1.718.979 2.338.627.62 1.477.968 2.364.968h1.114v2.204h2.229V23.51H19.8c.887 0 1.737-.348 2.364-.968.627-.62.979-1.461.979-2.338ZM29.852 19.97a1.13 1.13 0 0 0-1.429 0l-5.714 4.653a1.17 1.17 0 0 0-.423.907v9.307c0 .308.12.604.334.822.215.218.506.341.809.341h11.428c.303 0 .594-.123.808-.34.215-.219.335-.515.335-.823V25.53a1.171 1.171 0 0 0-.434-.907l-5.714-4.654Zm3.862 13.703H31.43v-3.49c0-.308-.12-.604-.335-.822a1.133 1.133 0 0 0-.808-.34H28c-.303 0-.594.122-.808.34a1.174 1.174 0 0 0-.335.822v3.49h-2.285V26.09l4.571-3.723 4.571 3.723v7.584Z" fill="#017848"></path></svg>