<svg xmlns="http://www.w3.org/2000/svg" role="img" width="32px" height="32px" viewBox="0 0 28 28" aria-label="equal housing lender"><title>Equal Housing Lender</title><path fill="var(--crate-color-lavender)" d="M-0.002 7.843l13.939-7.843 13.628 7.921v2.757h-2.174v9.746h-23.257v-9.746h-2.136v-2.835zM13.936 2.955l-8.969 5.203v9.785h17.744v-9.785l-8.775-5.203zM9.166 11.886v-2.408h9.28v2.408h-9.28zM9.166 13.086h9.28v2.408h-9.28v-2.408zM14.208 28v-3.067h1.631c1.165 0 1.98 0.349 1.98 1.592 0 1.204-0.738 1.475-2.019 1.475h-1.592zM15.062 25.591v1.747h0.699c0.66 0 1.126-0.116 1.126-0.815 0-0.621-0.505-0.932-1.048-0.932h-0.777zM22.676 28v-3.067h2.252c0.854 0 1.204 0.272 1.204 0.971 0 0.505-0.272 0.738-0.854 0.816l0.893 1.281h-0.932l-0.893-1.281h-0.815v1.281h-0.854zM24.808 25.592h-1.281v0.466h1.242c0.427 0 0.544 0 0.544-0.233 0-0.194-0.155-0.233-0.505-0.233zM9.551 24.933v3.067h0.815v-1.864l1.631 1.864h0.971v-3.067h-0.815v1.902l-1.631-1.902zM1.587 24.933v3.067h3.067v-0.66l-2.213-0.039v-2.368zM5.513 28h2.99v-0.66h-2.097v-0.66h1.747v-0.621h-1.747v-0.466h2.097v-0.66h-2.99zM18.754 24.933v3.067l2.951-0.039v-0.621h-2.097v-0.66h1.786v-0.621h-1.786v-0.466h2.097v-0.66zM7.644 24.154l0.777-2.757h0.66l0.777 2.757h-0.605l-0.172-0.621h-0.699l-0.172 0.621h-0.565zM8.734 21.986l-0.233 1.087h0.505l-0.272-1.087zM3.336 23.145v-0.738c0-0.699 0.233-1.087 0.932-1.087 0.777 0 0.932 0.466 0.932 1.126v0.583c0 0.349-0.039 0.505-0.155 0.738l0.466 0.155-0.039 0.194c-1.592 0-2.135-0.039-2.135-0.971zM3.917 22.446v0.66c0 0.505 0.078 0.66 0.349 0.66 0.311 0 0.349-0.116 0.349-0.621v-0.738c0-0.544-0.039-0.621-0.311-0.621-0.349-0-0.388 0.155-0.388 0.66zM19.1 23.416c0 0.427 0.272 0.777 0.893 0.777 0.505 0 0.971-0.349 0.971-0.777 0-0.66-1.242-0.971-1.242-1.398 0-0.155 0.155-0.233 0.311-0.233 0.233 0 0.349 0.155 0.466 0.388l0.388-0.155c-0.039-0.388-0.311-0.699-0.893-0.699-0.466 0-0.854 0.233-0.854 0.699 0 0.777 1.242 0.971 1.242 1.475 0 0.194-0.116 0.272-0.349 0.272s-0.388-0.155-0.466-0.427l-0.466 0.077zM14.911 23.261v-0.893c0-0.738 0.349-1.048 0.932-1.048 0.738 0 0.932 0.272 0.932 0.971v0.854c0 0.738-0.194 1.048-0.932 1.048s-0.932-0.272-0.932-0.932zM15.492 22.329v0.854c0 0.388 0.039 0.583 0.349 0.583 0.233 0 0.349-0.155 0.349-0.621v-0.815c0-0.311-0.039-0.583-0.349-0.583s-0.349 0.233-0.349 0.583zM24.264 23.145c0 0.815 0.233 1.048 1.010 1.048 0.601 0 0.777-0.282 0.777-0.583v-0.893h-0.815v0.427h0.272v0.311c0 0.233-0.078 0.349-0.272 0.349-0.388 0-0.427-0.272-0.427-0.66v-0.621c0-0.466 0.039-0.777 0.427-0.777 0.272 0 0.427 0.194 0.466 0.466l0.388-0.155c-0.039-0.466-0.349-0.738-0.893-0.738-0.777 0-0.932 0.427-0.932 1.010v0.816zM17.007 21.397v1.592c0 0.932 0.16 1.23 0.975 1.23 0.621 0 0.85-0.337 0.85-1.152v-1.67h-0.544v1.592c0 0.621-0.039 0.777-0.349 0.777s-0.349-0.233-0.349-0.815v-1.553h-0.582zM22.169 21.398v2.757h0.466v-1.864l0.66 1.864h0.699v-2.757h-0.466v1.708l-0.621-1.708zM5.747 21.397v1.67c0 0.777 0.078 1.126 0.854 1.126 0.893 0 0.932-0.427 0.932-1.204v-1.592h-0.544v1.631c0 0.544-0.078 0.699-0.349 0.699-0.311 0-0.349-0.155-0.349-0.777v-1.553h-0.543zM12.773 21.398v2.757h0.544v-1.242h0.66v1.242h0.543v-2.757h-0.543v1.048h-0.66v-1.048zM1.552 21.398v2.757h1.398v-0.427h-0.854v-0.777h0.777v-0.388h-0.777v-0.738h0.854v-0.427zM10.093 21.398v2.757h1.281v-0.427h-0.815v-2.33zM21.241 21.398h0.505v2.757h-0.505z"></path></svg>