<svg height="36" stroke="none" viewBox="0 0 36 36" width="36" aria-hidden="true" fill="#017848" version="1.1" xmlns="http://www.w3.org/2000/svg"><title id="start-refinance-icon">Start Refinance</title><path d="M35.579 13.748 18.703.247a1.124 1.124 0 0 0-1.406 0L.42 13.747a1.125 1.125 0 0 0 .698 2.003h2.25v19.126A1.126 1.126 0 0 0 4.494 36h27.001a1.125 1.125 0 0 0 1.125-1.125V15.75h2.25a1.125 1.125 0 0 0 .709-2.002Zm-4.084-.248a1.125 1.125 0 0 0-1.125 1.125V33.75H5.619V14.625A1.126 1.126 0 0 0 4.494 13.5h-.169l13.67-10.936L31.662 13.5h-.168Z" fill="#017848"></path><path d="M17.6 15v1.768h-.9c-.965 0-1.856.505-2.338 1.326a2.61 2.61 0 0 0 0 2.651 2.709 2.709 0 0 0 2.338 1.326h3.6c.322 0 .619.169.78.442a.87.87 0 0 1 0 .884.903.903 0 0 1-.78.442h-3.6a.908.908 0 0 1-.636-.259.876.876 0 0 1-.264-.625H14c0 .704.284 1.378.79 1.876a2.725 2.725 0 0 0 1.91.776h.9v1.768h1.8v-1.768h.9c.965 0 1.856-.505 2.338-1.326a2.61 2.61 0 0 0 0-2.651 2.709 2.709 0 0 0-2.338-1.326h-3.6a.903.903 0 0 1-.78-.442.87.87 0 0 1 0-.884.903.903 0 0 1 .78-.442h3.6c.239 0 .468.093.636.259.17.165.264.39.264.625H23c0-.704-.285-1.378-.79-1.876a2.725 2.725 0 0 0-1.91-.776h-.9V15h-1.8Z" fill="#017848"></path><path d="M18.456 10C12.5 10 7.67 14.83 7.67 20.785H6l2.869 4.782 2.865-4.782h-1.667a8.383 8.383 0 0 1 8.389-8.388 8.383 8.383 0 0 1 8.389 8.388 8.383 8.383 0 0 1-8.39 8.389 8.32 8.32 0 0 1-5.919-2.469l-1.702 1.702a10.73 10.73 0 0 0 7.622 3.164c5.956 0 10.785-4.83 10.785-10.786C29.241 14.83 24.411 10 18.456 10Z" fill="#017848"></path></svg>