<svg fill="none" height="21" viewBox="0 0 20 21" width="20" xmlns="http://www.w3.org/2000/svg"><title>Phone</title><path clip-rule="evenodd" d="M1.1116 0.0151367H5.00049C5.6116 0.0151367 6.1116 0.516439 6.1116 1.12914C6.1116 2.52165 6.33382 3.85845 6.74493 5.10614C6.86715 5.49604 6.77827 5.9305 6.46715 6.24242L4.02271 8.69323C5.62271 11.8459 8.20049 14.4192 11.3449 16.0345L13.7894 13.5837C14.0116 13.3721 14.2894 13.2607 14.5783 13.2607C14.6894 13.2607 14.8116 13.2718 14.9227 13.3164C16.1672 13.7285 17.5116 13.9513 18.8894 13.9513C19.5005 13.9513 20.0005 14.4526 20.0005 15.0653V18.9532C20.0005 19.5659 19.5005 20.0672 18.8894 20.0672C8.45604 20.0672 0.000488281 11.5896 0.000488281 1.12914C0.000488281 0.516439 0.500488 0.0151367 1.1116 0.0151367ZM3.93382 2.24315C4.00049 3.23461 4.16715 4.20379 4.43382 5.12842L3.10049 6.46522C2.64493 5.12842 2.35604 3.71363 2.25604 2.24315H3.93382ZM14.8894 15.6335C15.8338 15.9008 16.8005 16.0679 17.7783 16.1348V17.7947C16.3116 17.6944 14.9005 17.4047 13.556 16.9591L14.8894 15.6335Z" fill="#017848" fill-rule="evenodd"></path></svg>