<svg style="fill:none;stroke:none" height="22px" width="22px" aria-hidden="true" fill="#017848" version="1.1" xmlns="http://www.w3.org/2000/svg"><path clip-rule="evenodd" d="M10 .833C4.94.833.833 4.94.833 10S4.94 19.166 10 19.166 19.167 15.06 19.167 10C19.167 4.94 15.06.833 10 .833Zm0 16.5c-4.042 0-7.333-3.29-7.333-7.333S5.957 2.666 10 2.666 17.333 5.957 17.333 10c0 4.042-3.29 7.333-7.333 7.333ZM7.458 15H5.5l7.057-10h1.958L7.458 15ZM7 9.476a1.71 1.71 0 0 0 1.716-1.738C8.716 6.748 7.946 6 7 6c-.968 0-1.738.748-1.738 1.738S6.032 9.476 7 9.476Zm6 4.5a1.71 1.71 0 0 0 1.716-1.738c0-.99-.77-1.738-1.716-1.738-.968 0-1.738.748-1.738 1.738s.77 1.738 1.738 1.738Z" fill="#017848" fill-rule="evenodd" xmlns="http://www.w3.org/2000/svg"></path></svg>