<svg
            fill="none"
            height="90"
            viewBox="0 0 150 90"
            width="154"
            xmlns="http://www.w3.org/2000/svg"
          >
            <path
              d="M68.929 26.703h6.64v29.28h-6.64v-29.28Z"
              fill="#292B29"
            ></path>
            <path
              d="M78.737 26.703h6.64v29.28h-6.64v-29.28Z"
              fill="#292B29"
            ></path>
            <path
              d="M87.187 34.729h7.243l4.376 12.931 4.376-12.931h7.243l-11.317 29.43h-7.243l3.462-8.322-8.14-21.108Z"
              fill="#292B29"
            ></path>
            <path
              d="M66.023 45.511c0-1.53-.27-2.97-.81-4.321a10.635 10.635 0 0 0-2.26-3.514c-.967-.991-2.122-1.78-3.466-2.365-1.344-.586-2.82-.879-4.428-.879-6.994 0-11.24 4.881-11.24 11.08 0 6.068 4.836 10.813 10.017 10.939l5.733-6.248-.094-.155v5.963h6.548v-10.5Zm-6.571 4.56-4.511.012c-3.091 0-6.509-4.382-3.023-7.815 3.092-3.047 7.726-.548 7.726 3.69l-.192 4.113Z"
              fill="#292B29"
            ></path>
          </svg>