 <svg
            fill="none"
            height="90"
            viewBox="0 0 150 90"
            width="154"
            xmlns="http://www.w3.org/2000/svg"
          >
            <g clip-path="url(#clip0)">
              <path
                d="M41 9.00024H112.821V47.868L109.266 53.4364L112.821 58.3924V81.0002H41V44.3599L43.2218 41.7984L41 39.3483V9.00024Z"
                fill="black"
              ></path>
              <path
                d="M54.9421 59.1719V47.8679H66.8812L68.1621 49.5419L69.4854 47.8679H112.821V58.3923C112.821 58.3923 111.688 59.1606 110.377 59.1719H86.3813L84.9371 57.39V59.1719H80.2045V56.1301C80.2045 56.1301 79.5581 56.5547 78.1604 56.5547H76.5496V59.1719H69.3841L68.105 57.462L66.8063 59.1719H54.9421Z"
                fill="white"
              ></path>
              <path
                d="M41 39.3482L43.6923 33.0559H48.3484L49.8763 36.5806V33.0559H55.6642L56.5738 35.6035L57.4556 33.0559H83.4373V34.3366C83.4373 34.3366 84.8031 33.0559 87.0478 33.0559L95.4779 33.0854L96.9794 36.564V33.0559H101.823L103.156 35.0541V33.0559H108.044V44.3598H103.156L101.879 42.3552V44.3598H94.7622L94.0466 42.5779H92.1335L91.4295 44.3598H86.6034C84.6719 44.3598 83.4373 43.1053 83.4373 43.1053V44.3598H76.1607L74.7165 42.5779V44.3598H47.6586L46.9434 42.5779H45.0364L44.3263 44.3598H41V39.3482Z"
                fill="white"
              ></path>
              <path
                d="M44.6452 34.4492L41.0139 42.9133H43.3781L44.0481 41.2184H47.9433L48.6099 42.9133H51.0261L47.3983 34.4492H44.6452ZM45.9888 36.4191L47.1761 39.3808H44.798L45.9888 36.4191Z"
                fill="black"
              ></path>
              <path
                d="M51.2761 42.912V34.448L54.6358 34.4605L56.5898 39.9176L58.4971 34.448H61.8299V42.912H59.7191V36.6754L57.4817 42.912H55.6306L53.3869 36.6754V42.912H51.2761Z"
                fill="black"
              ></path>
              <path
                d="M63.2739 42.912V34.448H70.1617V36.3413H65.4069V37.7891H70.0506V39.571H65.4069V41.0745H70.1617V42.912H63.2739Z"
                fill="black"
              ></path>
              <path
                d="M71.3838 34.4492V42.9133H73.4945V39.9063H74.3833L76.9141 42.9133H79.4935L76.7162 39.7949C77.856 39.6985 79.0318 38.7178 79.0318 37.1952C79.0318 35.414 77.6373 34.4492 76.0809 34.4492H71.3838ZM73.4945 36.3425H75.9073C76.4861 36.3425 76.9072 36.7964 76.9072 37.2334C76.9072 37.7958 76.3616 38.1244 75.9386 38.1244H73.4945V36.3425Z"
                fill="black"
              ></path>
              <path
                d="M82.0485 42.912H79.8933V34.448H82.0485V42.912Z"
                fill="black"
              ></path>
              <path
                d="M87.1588 42.912H86.6936C84.4428 42.912 83.0762 41.1343 83.0762 38.7148C83.0762 36.2356 84.4275 34.448 87.2699 34.448H89.6029V36.4526H87.1846C86.0307 36.4526 85.2147 37.3554 85.2147 38.7357C85.2147 40.3749 86.1478 41.0633 87.4921 41.0633H88.0476L87.1588 42.912Z"
                fill="black"
              ></path>
              <path
                d="M91.7519 34.4492L88.1206 42.9133H90.4848L91.1548 41.2184H95.05L95.7165 42.9133H98.1328L94.5049 34.4492H91.7519ZM93.0955 36.4191L94.2828 39.3808H91.9047L93.0955 36.4191Z"
                fill="black"
              ></path>
              <path
                d="M98.3792 42.912V34.448H101.063L104.489 39.7659V34.448H106.6V42.912H104.003L100.49 37.455V42.912H98.3792Z"
                fill="black"
              ></path>
              <path
                d="M56.3862 57.724V49.26H63.274V51.1533H58.5192V52.6011H63.1629V54.383H58.5192V55.8865H63.274V57.724H56.3862Z"
                fill="black"
              ></path>
              <path
                d="M90.1362 57.724V49.26H97.024V51.1533H92.2692V52.6011H96.8906V54.383H92.2692V55.8865H97.024V57.724H90.1362Z"
                fill="black"
              ></path>
              <path
                d="M63.5413 57.724L66.8949 53.5442L63.4614 49.26H66.1207L68.1655 51.9085L70.2172 49.26H72.7724L69.384 53.492L72.7438 57.724H70.085L68.0995 55.1173L66.1624 57.724H63.5413Z"
                fill="black"
              ></path>
              <path
                d="M72.9946 49.2615V57.7255H75.1609V55.0527H77.3828C79.2628 55.0527 80.6878 54.0528 80.6878 52.1083C80.6878 50.4976 79.5701 49.2615 77.657 49.2615H72.9946ZM75.1609 51.1756H77.5008C78.1082 51.1756 78.5423 51.5488 78.5423 52.1501C78.5423 52.715 78.1104 53.1246 77.4939 53.1246H75.1609V51.1756Z"
                fill="black"
              ></path>
              <path
                d="M81.6042 49.26V57.724H83.715V54.7171H84.6037L87.1346 57.724H89.714L86.9367 54.6057C88.0765 54.5093 89.2523 53.5286 89.2523 52.0059C89.2523 50.2248 87.8578 49.26 86.3014 49.26H81.6042ZM83.715 51.1533H86.1278C86.7066 51.1533 87.1276 51.6072 87.1276 52.0442C87.1276 52.6066 86.5821 52.9352 86.159 52.9352H83.715V51.1533Z"
                fill="black"
              ></path>
              <path
                d="M98.0014 57.724V55.8865H102.226C102.851 55.8865 103.121 55.5479 103.121 55.1765C103.121 54.8207 102.852 54.4609 102.226 54.4609H100.317C98.6575 54.4609 97.7334 53.4475 97.7334 51.9259C97.7334 50.5688 98.5797 49.26 101.045 49.26H105.156L104.267 51.1644H100.712C100.033 51.1644 99.8233 51.5219 99.8233 51.8633C99.8233 52.2141 100.082 52.6011 100.601 52.6011H102.601C104.45 52.6011 105.253 53.6529 105.253 55.0303C105.253 56.5112 104.359 57.724 102.5 57.724H98.0014Z"
                fill="black"
              ></path>
              <path
                d="M105.748 57.724V55.8865H109.973C110.598 55.8865 110.868 55.5479 110.868 55.1765C110.868 54.8207 110.599 54.4609 109.973 54.4609H108.064C106.405 54.4609 105.48 53.4475 105.48 51.9259C105.48 50.5688 106.327 49.26 108.792 49.26H112.903L112.014 51.1644H108.459C107.78 51.1644 107.57 51.5219 107.57 51.8633C107.57 52.2141 107.829 52.6011 108.348 52.6011H110.348C112.197 52.6011 113 53.6529 113 55.0303C113 56.5112 112.106 57.724 110.247 57.724H105.748Z"
                fill="black"
              ></path>
            </g>
            <defs>
              <clipPath id="clip0">
                <rect
                  fill="white"
                  height="72"
                  transform="translate(41 9)"
                  width="72"
                ></rect>
              </clipPath>
            </defs>
          </svg>