 <svg
            fill="none"
            height="90"
            viewBox="0 0 150 90"
            width="154"
            xmlns="http://www.w3.org/2000/svg"
          >
            <g clip-path="url(#a)" fill="#000">
              <path d="m65.643 56.943-.105.11c-1.706 1.783-3.687 2.724-5.728 2.724-4.26 0-7.353-3.262-7.353-7.758 0-4.495 3.092-7.759 7.353-7.759 2.041 0 4.022.943 5.728 2.727l.105.11 2.745-3.383-.072-.088c-2.277-2.749-5.017-4.086-8.372-4.086-3.374 0-6.458 1.153-8.686 3.246-2.41 2.264-3.683 5.456-3.683 9.233 0 3.778 1.273 6.968 3.683 9.234 2.228 2.093 5.312 3.246 8.686 3.246 3.355 0 6.095-1.336 8.372-4.086l.072-.088-2.745-3.382Z"></path>
              <path d="M71.157 64.038h4.837V39.93h-4.837v24.108Z"></path>
              <path d="M94.96 58.797c-1.291.801-2.495 1.206-3.579 1.206-1.566 0-2.265-.838-2.265-2.719v-12.79h4.922v-4.539h-4.922V32.45l-4.748 2.595v4.911h-4.094v4.54h4.094V58.1c0 3.71 2.157 6.243 5.366 6.306 2.183.041 3.496-.613 4.292-1.11l.047-.028 1.169-4.648-.283.177Z"></path>
              <path d="M98.966 64.038h4.84V39.93h-4.84v24.108Z"></path>
              <path d="M106.85 36.03c-4.037-6.174-11.491-10.533-19.452-10.53-7.837.003-15.289 4.229-19.459 10.53h5.564c3.795-3.99 8.717-6.162 13.895-6.164 5.085-.003 10.086 2.173 13.889 6.165h5.563Z"></path>
            </g>
            <defs>
              <clipPath id="a">
                <path
                  d="M0 0h60.522v39H0z"
                  fill="#fff"
                  transform="translate(46.74 25.5)"
                ></path>
              </clipPath>
            </defs>
          </svg>