 <svg
            fill="none"
            height="90"
            viewBox="0 0 150 90"
            width="154"
            xmlns="http://www.w3.org/2000/svg"
          >
            <path
              d="M141.005 35.197a.79.79 0 0 1-.567-.226c-.134-.127-.273-.256-.378-.405-.392-.556-.771-1.121-1.154-1.682-.008-.011-.012-.024-.02-.043.032-.012.062-.02.088-.036.136-.07.284-.128.407-.217.389-.284.574-.672.517-1.156-.056-.478-.335-.791-.773-.97a2.31 2.31 0 0 0-.9-.152l-1.736.005h-.343c0 .037.002.068 0 .098-.008.065.013.09.083.087.067-.004.135.004.202.013.239.034.352.154.372.394.005.06.006.123.006.185v3.527c0 .042 0 .085-.002.127-.017.265-.155.412-.42.441-.076.01-.155.013-.234.02v.172h2.032c0-.037-.003-.07.002-.103.007-.064-.019-.085-.081-.082a1.02 1.02 0 0 1-.185-.01c-.176-.021-.323-.088-.369-.279a1.049 1.049 0 0 1-.026-.25c-.003-.526-.002-1.051-.002-1.577 0-.028.003-.055.005-.092.194 0 .381.002.568-.002.063 0 .102.018.135.074.139.227.282.454.426.679.351.552.71 1.1 1.148 1.591a.15.15 0 0 0 .129.057c.311-.003.623-.005.935 0 .165.002.167.004.15-.165l-.015-.023Zm-2.466-2.57c-.31.142-.635.15-.966.1-.061-.01-.049-.051-.049-.088v-.987c0-.328.002-.658-.001-.986 0-.06.018-.08.078-.09a1.99 1.99 0 0 1 .763.011c.452.101.7.373.776.842.081.52-.151.988-.601 1.197Z"
              fill="#000"
            ></path>
            <path
              d="M128.15 30.313c-.562-.002-1.123 0-1.686 0-.021 0-.044.003-.066.006v.168c.152.02.299.033.44.064a.469.469 0 0 1 .386.379c.024.114.042.232.043.35.004.97.003 1.94.003 2.91 0 .02-.005.04-.009.072l-.079-.083c-.871-.94-1.745-1.879-2.612-2.823-.3-.327-.581-.67-.875-1.002-.021-.024-.066-.039-.1-.039-.298-.001-.596.002-.893.005h-.291c-.031.173-.03.174.13.184.036.003.073.005.109.01.284.039.514.156.596.454.035.126.047.26.049.39.003.954.005 1.908 0 2.86-.002.191-.019.384-.057.57-.057.27-.211.386-.486.404-.075.004-.151.007-.226.012v.178h1.924v-.18l-.097-.004c-.102-.01-.207-.015-.31-.034a.457.457 0 0 1-.396-.384 2.45 2.45 0 0 1-.052-.46c-.007-.983-.005-1.967-.005-2.953 0-.02.005-.04.008-.073l.067.07c1.22 1.337 2.44 2.674 3.658 4.014.071.077.14.088.238.063v-.109c0-1.341-.001-2.683.001-4.024 0-.146.013-.293.037-.436.04-.224.17-.335.395-.362.06-.007.124-.005.184-.01.021 0 .059-.008.06-.017a.467.467 0 0 0 0-.15c-.003-.013-.057-.02-.088-.02Z"
              fill="#000"
            ></path>
            <path
              d="M130.806 34.909c-.028.144-.126.229-.269.256a1.875 1.875 0 0 1-.235.026c-.16.01-.167.019-.137.18 0 .003.003.006.011.016h.084c.315-.004.63-.013.944-.011.887.002 1.775.008 2.663.014.064 0 .09-.016.106-.082.054-.226.113-.453.173-.678.031-.115.068-.23.101-.344-.15-.062-.157-.056-.215.078a2.78 2.78 0 0 1-.158.316.858.858 0 0 1-.638.438 5.261 5.261 0 0 1-1.219.016c-.263-.023-.378-.138-.427-.4a1.601 1.601 0 0 1-.024-.284c-.004-.486-.002-.973-.007-1.46 0-.069.024-.084.088-.083.298.003.596 0 .894.004.095.001.191.014.283.034.129.026.213.11.252.235.021.066.032.137.042.205.01.071.014.143.02.213.144.015.144.015.141-.113l-.002-.059a10.246 10.246 0 0 1-.004-1.39c.001-.016-.004-.032-.006-.045h-.132c-.006.05-.011.093-.018.138-.042.283-.217.465-.495.475-.345.012-.691.002-1.037.002-.004 0-.008-.005-.018-.01-.001-.014-.005-.03-.005-.047l-.001-1.932c0-.063.027-.073.08-.072.289.003.579-.001.868.004.118.002.236.014.351.035.32.057.541.237.642.55.031.095.054.194.081.288.14-.012.14-.012.14-.143v-.852c0-.114 0-.113-.113-.113h-3.364l-.084.003v.18l.094.008c.096.01.191.014.284.031.173.031.254.115.284.289.014.082.023.168.023.251.001 1.151.002 2.3-.002 3.451 0 .126-.016.255-.039.382Z"
              fill="#000"
            ></path>
            <path
              d="M112.971 34.898c-.027.155-.13.245-.285.27-.074.012-.15.019-.226.023-.152.01-.152.01-.136.162.001.008.005.015.011.032h.08l3.034-.002c.197 0 .393 0 .59.006.064.003.084-.022.098-.082.041-.184.086-.366.135-.547.043-.16.093-.316.139-.474-.147-.062-.158-.056-.215.078a3.064 3.064 0 0 1-.115.244c-.158.299-.399.496-.74.515-.39.021-.78.024-1.17.006-.261-.01-.371-.137-.416-.394a2.01 2.01 0 0 1-.027-.31c-.004-.477-.003-.956-.004-1.434 0-.025.004-.049.006-.076.025-.002.043-.006.062-.006.315 0 .63-.002.944.002.086.002.173.015.258.034a.32.32 0 0 1 .241.225c.023.068.035.142.045.214.01.07.012.143.019.213.145.016.145.016.142-.12-.001-.03-.001-.062-.004-.093a9.632 9.632 0 0 1-.001-1.349c.001-.014-.004-.03-.005-.048h-.132c-.004.025-.008.047-.01.068-.051.392-.231.551-.628.553h-.843c-.03 0-.059-.003-.088-.005-.002-.021-.006-.031-.006-.043l-.001-1.949c0-.06.024-.07.075-.068.216 0 .433-.004.649.002.193.005.388.009.579.039a.74.74 0 0 1 .612.48c.045.114.073.235.109.353.129-.002.138-.01.138-.134v-.966c-.03-.003-.043-.006-.057-.006h-3.439c-.059 0-.076.023-.07.074.006.048-.028.114.07.12.117.004.235.018.35.039.139.026.221.12.243.257.015.089.026.18.026.268.002 1.15.003 2.3-.001 3.45.003.128-.015.255-.036.379Z"
              fill="#000"
            ></path>
            <path
              d="M106.483 30.503a.927.927 0 0 1 .185.01c.249.036.355.145.382.395.005.05.007.101.007.152v3.576c0 .065-.003.13-.013.193-.03.187-.138.306-.324.342-.104.022-.21.028-.319.04v.172c.026.001.046.004.065.004h3.631c.057 0 .079-.018.091-.07.057-.246.118-.492.177-.738l.071-.297c-.149-.052-.149-.052-.196.078l-.043.11c-.149.382-.418.607-.832.655a4.13 4.13 0 0 1-.992-.003c-.44-.055-.603-.23-.604-.675a654.445 654.445 0 0 1 0-3.432c.001-.36.13-.491.488-.511.034-.003.067-.001.102-.003.021 0 .042-.005.066-.007v-.174h-2.027c-.002.032-.002.06-.005.087-.011.07.013.1.09.096Z"
              fill="#000"
            ></path>
            <path
              d="m120.194 35.194-.101-.006c-.276-.025-.395-.146-.416-.423a2.297 2.297 0 0 1-.007-.186v-3.475c0-.07.003-.141.01-.21.021-.22.113-.324.326-.37.06-.013.123-.018.184-.02.155-.008.155-.006.142-.162-.001-.007-.006-.015-.01-.023h-2.019v.175c.091.006.178.009.264.019.252.03.368.154.387.406.003.056.005.112.005.17v3.518c0 .062 0 .124-.007.185-.024.238-.119.34-.35.384-.069.013-.141.013-.21.019-.03.002-.06.006-.088.009v.176h2.022c.03-.172.026-.176-.132-.186Z"
              fill="#000"
            ></path>
            <path
              d="M100.59 30.927c.002.045.004.09.004.134v3.55c0 .06-.002.119-.007.177-.017.227-.117.344-.341.385-.101.018-.205.02-.308.03v.176h1.946V35.2l-.181-.012c-.246-.024-.369-.147-.389-.394-.005-.06-.005-.123-.005-.185v-3.525c0-.063 0-.125.005-.186.022-.246.14-.364.383-.39l.158-.014v-.175h-1.919v.176c.09.006.173.009.256.018.257.024.383.156.398.414Z"
              fill="#000"
            ></path>
            <path
              d="M104.103 34.86c-.687-.758-1.378-1.514-2.067-2.269-.012-.012-.02-.026-.033-.043l.064-.069c.192-.201.383-.404.576-.603.32-.328.637-.658.964-.979.183-.18.394-.327.655-.376.091-.016.183-.02.277-.03v-.174h-1.627c-.001.032-.001.06-.005.086-.012.079.023.102.098.099a.631.631 0 0 1 .175.017c.124.03.169.116.112.229a.933.933 0 0 1-.162.224c-.575.608-1.153 1.214-1.729 1.82l-.061.068.041.052c.728.811 1.456 1.624 2.186 2.432a.141.141 0 0 0 .093.038c.362.002.724 0 1.086 0l.076-.003v-.186c-.307.02-.527-.121-.719-.334Z"
              fill="#000"
            ></path>
            <path
              d="M111.702 43.261c-.045.005-.09.005-.134.008a1.473 1.473 0 0 0-.072.006v.173h2.027v-.172c-.115-.013-.227-.019-.336-.037-.178-.033-.28-.142-.309-.322a.887.887 0 0 1-.01-.126l-.002-1.663c0-.056.019-.074.073-.072.169.002.337.003.506 0 .061-.002.097.017.129.07.159.258.321.514.485.77.333.522.675 1.037 1.09 1.5a.16.16 0 0 0 .137.058c.309-.004.618-.001.926-.001h.149v-.187c-.3.006-.521-.147-.714-.35-.094-.1-.191-.201-.269-.313-.264-.375-.522-.754-.781-1.132-.125-.183-.247-.368-.368-.549.138-.068.279-.123.402-.201.436-.276.663-.67.613-1.192-.046-.494-.33-.816-.781-1a2.322 2.322 0 0 0-.892-.15h-2.014c-.019 0-.038.003-.062.006v.178l.176.01c.367.034.476.151.478.52.003.342.002.681.002 1.022 0 .883.001 1.767-.002 2.65-.001.31-.142.462-.447.496Zm1.163-3.547c0-.325.001-.651-.002-.977 0-.059.015-.082.077-.092.25-.041.498-.044.745.006.453.092.728.377.792.836.065.471-.06.872-.477 1.142-.267.174-.57.21-.881.189-.081-.005-.189.004-.232-.042-.042-.045-.02-.153-.021-.234-.003-.276-.001-.551-.001-.828Z"
              fill="#000"
            ></path>
            <path
              d="M134.438 38.38a406.6 406.6 0 0 0-1.711 0c-.016 0-.032.005-.052.006a1.197 1.197 0 0 1-.007.07c-.011.082.012.119.105.12.112.001.225.017.334.041.196.043.339.156.388.356.032.136.052.277.053.417.005.956.003 1.913.003 2.87 0 .02-.005.04-.009.07l-.07-.07c-.85-.917-1.703-1.833-2.549-2.753-.317-.346-.621-.703-.927-1.059-.039-.045-.071-.067-.132-.067-.373.002-.747.002-1.12.002-.019 0-.038.004-.059.006v.176c.082.006.16.011.238.02.359.037.566.221.631.562.014.071.019.146.019.218.001 1.021.001 2.042-.002 3.064 0 .137-.022.275-.049.409-.056.272-.207.4-.483.422-.078.006-.155.007-.233.01v.175h.443c.469.004.939.006 1.408.013.065 0 .083-.023.078-.084-.005-.053.016-.11-.078-.11a2.016 2.016 0 0 1-.367-.042c-.173-.034-.302-.138-.343-.31a2.284 2.284 0 0 1-.071-.5c-.009-.992-.007-1.986-.008-2.979 0-.018.005-.036.013-.086.031.041.045.065.063.085 1.216 1.334 2.432 2.667 3.646 4.003.07.077.139.106.249.076v-.11c0-1.342 0-2.684.002-4.026 0-.116.006-.232.018-.345.034-.296.165-.424.459-.453.047-.005.095-.003.143-.008.018-.002.052-.008.052-.014.006-.05.01-.1.002-.15-.001-.013-.049-.024-.077-.024Z"
              fill="#000"
            ></path>
            <path
              d="M109.107 43.458c.073 0 .099-.021.115-.092.049-.217.105-.432.162-.646.034-.123.073-.245.109-.367-.155-.059-.157-.055-.217.082a2.959 2.959 0 0 1-.157.316.858.858 0 0 1-.698.443c-.288.022-.578.023-.867.027a2.093 2.093 0 0 1-.352-.03c-.196-.03-.321-.143-.356-.342a2.214 2.214 0 0 1-.033-.334c-.005-.484-.004-.968-.005-1.452 0-.027.004-.053.006-.087.236 0 .463-.003.691.001.16.001.321.001.48.018.216.022.324.13.363.347.02.107.027.216.041.327h.124V40.06c-.129-.018-.129-.018-.144.087-.051.369-.231.528-.604.53-.286 0-.573-.003-.86.002-.079 0-.1-.022-.098-.099.002-.624.001-1.249.002-1.873 0-.028.003-.055.004-.078.011-.007.016-.012.021-.01.395.005.793-.008 1.188.022.424.032.666.27.766.69.014.053.026.107.038.16.142-.01.144-.012.144-.139v-.87c0-.031-.004-.064-.005-.092h-3.557c-.002.023-.005.04-.005.056-.004.125-.004.123.118.133.1.008.201.017.3.036a.29.29 0 0 1 .245.246c.017.088.026.178.026.268.002 1.157.002 2.312 0 3.469 0 .1-.008.203-.022.302-.031.217-.126.313-.342.342-.105.015-.211.022-.32.032-.002.024-.005.047-.005.068-.002.113-.002.113.114.11.293-.004.584-.012.877-.01.904.003 1.809.008 2.713.016Z"
              fill="#000"
            ></path>
            <path
              d="M101.946 43.362c.012-.079-.021-.102-.096-.101a1.228 1.228 0 0 1-.243-.024c-.183-.032-.278-.125-.312-.307a1.219 1.219 0 0 1-.016-.218l-.001-3.983v-.113c.136 0 .263-.008.387.001.419.03.769.197.96.586.23.47.223.952-.028 1.418a.76.76 0 0 1-.622.42c-.119.012-.241.003-.37.003 0 .059.003.115-.001.17-.002.047.018.064.063.064.098-.001.198.004.295.003a1.64 1.64 0 0 0 1.088-.41c.736-.63.678-1.918-.406-2.323a2.819 2.819 0 0 0-.999-.168h-1.66c-.019 0-.037.005-.06.007v.177c.09.008.176.012.262.026.211.033.317.134.348.342.019.12.025.24.025.36l.001 3.377c0 .062-.001.124-.006.185-.017.235-.123.352-.354.39-.098.017-.199.02-.298.03v.175h2.041c.001-.031-.001-.06.002-.087Z"
              fill="#000"
            ></path>
            <path
              d="M137.549 43.24c-.375-.176-.578-.495-.699-.876-.038-.12-.066-.136-.195-.09.046.33.09.661.139.992.004.027.039.065.066.073.191.064.382.137.579.176.477.096.942.053 1.387-.166 1.001-.492 1.078-1.874.145-2.44-.177-.109-.363-.202-.543-.306-.218-.126-.446-.24-.651-.386-.311-.223-.43-.542-.388-.923.052-.473.371-.773.843-.789.438-.015.772.2.907.587.023.069.039.14.059.213h.161c-.037-.3-.073-.596-.112-.89-.003-.015-.033-.037-.051-.04-.344-.059-.686-.121-1.038-.095-.753.055-1.258.499-1.345 1.213-.061.496.059.938.45 1.28.23.201.507.33.771.48.192.11.391.217.562.355a.978.978 0 0 1 .204 1.292c-.251.39-.812.545-1.251.34Z"
              fill="#000"
            ></path>
            <path
              d="M124.879 43.262c-.151.007-.151.007-.136.16.001.007.005.015.008.026h2.02v-.172c-.11-.012-.216-.019-.32-.036-.195-.034-.296-.14-.321-.336a1.721 1.721 0 0 1-.014-.226v-3.536c0-.058.002-.118.009-.176.032-.253.146-.36.401-.383.08-.008.161-.012.244-.018v-.177h-2.021v.175c.088.006.168.01.249.018.253.025.365.135.397.387.006.045.008.09.008.134 0 1.207.002 2.414 0 3.62-.001.397-.129.525-.524.54Z"
              fill="#000"
            ></path>
            <path
              d="M118.546 38.967c.005.05.006.1.006.152v3.577c0 .065-.003.13-.01.194-.025.207-.129.319-.336.352-.102.017-.205.023-.306.033v.174h1.945v-.173c-.09-.011-.18-.019-.268-.035-.149-.027-.251-.113-.281-.265a1.594 1.594 0 0 1-.029-.283l-.001-3.553c0-.067.003-.136.011-.202.029-.222.148-.336.37-.355l.163-.017v-.176h-1.914v.178c.091.006.175.01.258.017.244.021.367.14.392.382Z"
              fill="#000"
            ></path>
            <path
              d="M121.229 38.869a1.073 1.073 0 0 1-.146.184l-1.72 1.809a2.978 2.978 0 0 0-.065.072c.119.13.235.257.349.384.625.697 1.25 1.395 1.877 2.089a.17.17 0 0 0 .115.043c.346.004.691.002 1.037.002h.106v-.188c-.293.012-.515-.114-.706-.323-.691-.762-1.387-1.521-2.08-2.281-.011-.012-.019-.026-.031-.041.01-.014.018-.025.028-.035.477-.496.951-.998 1.434-1.487.145-.146.316-.27.486-.388.171-.118.376-.14.584-.144v-.178h-1.628v.176c.077.006.148.01.216.017.183.021.239.13.144.289Z"
              fill="#000"
            ></path>
            <path
              d="M146.998 48.875c-.04-.987-.534-1.7-1.407-2.147-.49-.25-1.019-.33-1.564-.328-.663.002-1.325 0-1.988.002-.018 0-.034.004-.055.006v.177c.083.004.163.005.242.011.233.021.357.13.398.362a1.7 1.7 0 0 1 .026.311l.001 3.411c0 .06-.002.12-.008.178-.028.239-.133.348-.371.386l-.289.043v.178c.025.003.042.005.059.005.666 0 1.332.003 1.998 0a3.85 3.85 0 0 0 1.372-.231 2.407 2.407 0 0 0 1.586-2.364Zm-1.056 1.318c-.269.562-.729.888-1.338 1.001-.268.05-.537.07-.806.012-.27-.06-.423-.23-.428-.506-.008-.468-.005-.934-.006-1.402v-.58c0-.653.001-1.305-.002-1.956 0-.082.024-.106.104-.111.378-.025.755-.037 1.124.063.791.216 1.3.724 1.513 1.51.181.671.141 1.337-.161 1.969Z"
              fill="#000"
            ></path>
            <path
              d="M118.108 46.41c-.02-.004-.029-.008-.037-.008l-1.543-.001c-.06 0-.07.03-.065.078.005.047-.026.115.065.116.086.001.173.005.258.015.196.023.29.103.32.3.026.165.041.332.042.497.005.813.005 1.626.002 2.439a2.741 2.741 0 0 1-.045.487c-.093.468-.365.78-.834.898a1.83 1.83 0 0 1-.744.028c-.506-.08-.847-.366-.996-.856a2.417 2.417 0 0 1-.108-.648c-.012-.887-.006-1.774-.007-2.661 0-.041.002-.084.006-.125.022-.207.13-.324.336-.357.079-.012.16-.013.239-.02l.067-.008c.03-.183.03-.18-.142-.18h-1.875v.18c.108.01.208.013.307.03.204.033.31.146.334.35.009.073.012.147.012.222.002.83-.001 1.66.003 2.492.001.169.008.34.036.506.104.624.44 1.067 1.05 1.268a2.65 2.65 0 0 0 1.632.013c.429-.132.755-.396.95-.807.123-.258.168-.533.169-.815.001-.834 0-1.667.004-2.5 0-.131.012-.263.035-.391.038-.224.159-.328.385-.353l.144-.013v-.176Z"
              fill="#000"
            ></path>
            <path
              d="M133.748 50.76a.856.856 0 0 1-.638.441 5.05 5.05 0 0 1-1.21.019c-.285-.026-.395-.144-.442-.425a1.061 1.061 0 0 1-.016-.168c-.004-.522-.005-1.042-.007-1.563 0-.022.007-.045.009-.054.387 0 .764-.012 1.141.003.246.01.358.135.395.38.015.097.021.195.032.3.049-.003.091-.004.123-.007v-1.608h-.125l-.015.08c-.054.383-.229.538-.612.54h-.856c-.028 0-.057-.005-.083-.007v-2.066c.412.01.817.004 1.218.038.401.035.653.273.746.67l.042.176c.144-.012.144-.012.144-.14v-.847c0-.12 0-.119-.123-.119H130.037c-.003.028-.006.045-.006.061-.002.039 0 .077 0 .122.12.01.226.014.332.028.226.03.326.134.346.36.007.086.013.172.013.26.002 1.089.002 2.177 0 3.267 0 .124-.005.25-.018.374-.027.255-.129.359-.382.39-.093.011-.189.014-.283.021v.175h.479c1.07.004 2.14.007 3.21.013.079 0 .105-.026.12-.1.041-.185.088-.37.138-.553.041-.152.088-.301.135-.46a7.88 7.88 0 0 1-.159-.027c-.073.146-.136.29-.214.426Z"
              fill="#000"
            ></path>
            <path
              d="M111.279 51.277c-.275-.015-.459-.142-.553-.409-.279-.787-.567-1.571-.852-2.357-.271-.75-.544-1.498-.816-2.247-.027-.077-.118-.1-.165-.039a.97.97 0 0 1-.351.268.1.1 0 0 0-.042.073 1.61 1.61 0 0 1-.11.673c-.295.826-.589 1.652-.887 2.478-.137.383-.283.764-.426 1.145a.573.573 0 0 1-.544.403c-.096.005-.136.042-.117.137.004.02.005.04.008.062h1.725c.003-.02.007-.037.008-.054.005-.129.005-.127-.12-.129-.098-.002-.198-.001-.293-.015-.16-.023-.237-.11-.243-.269a.794.794 0 0 1 .015-.239c.097-.364.204-.726.302-1.09.021-.078.055-.102.134-.102.479.003.957.002 1.436.002.169 0 .17 0 .224.16.134.395.272.788.396 1.185.069.223-.014.332-.244.36-.059.008-.119.007-.179.01-.026 0-.051.004-.077.007v.175h1.884l.006-.06c0-.12 0-.122-.119-.128Zm-3.325-2.014.696-2.11.026-.003.77 2.113h-1.492Z"
              fill="#000"
            ></path>
            <path
              d="M123.536 46.402c-.772.004-1.546.008-2.318.009-.334 0-.666-.008-.998-.009-.054 0-.132-.035-.128.077.005.112-.001.11.12.116.075.004.149.007.222.017.211.03.305.123.332.334.013.097.018.195.018.293v3.277c0 .11-.005.22-.016.33-.031.3-.143.405-.445.426-.074.005-.147.008-.221.011v.178h2.048v-.179c-.104-.008-.203-.01-.299-.025-.204-.028-.311-.138-.339-.343a1.302 1.302 0 0 1-.014-.187v-1.643c0-.029.002-.058.005-.086.014-.005.022-.01.03-.01.336 0 .672 0 1.008.004.062 0 .124.014.186.024a.376.376 0 0 1 .321.285c.023.08.039.161.053.243.02.121.035.131.158.091-.008-.256-.022-.511-.022-.766s.014-.51.022-.771h-.154c-.027.107-.051.214-.085.318-.043.14-.138.241-.285.248-.405.016-.812.016-1.218.023-.003 0-.005-.003-.013-.008v-2.056c.419.01.826.013 1.233.033a1.1 1.1 0 0 1 .352.09c.274.114.384.348.427.624.004.027.014.066.033.076.063.032.146-.031.143-.106l-.034-.821c-.008-.118-.008-.117-.122-.117Z"
              fill="#000"
            ></path>
            <path
              d="M104.276 50.171c-.201.852-.982 1.335-1.832 1.133-.577-.136-1.016-.468-1.336-.959-.444-.68-.532-1.428-.364-2.21.115-.544.395-.985.871-1.286.489-.309 1.022-.39 1.585-.277.317.065.595.206.798.467.139.178.22.38.261.6.012.064.038.087.1.078.029-.004.057 0 .088 0v-.084c-.018-.29-.041-.582-.056-.873-.003-.064-.027-.094-.086-.112-.242-.073-.48-.156-.723-.224-.656-.181-1.31-.191-1.952.061-.751.295-1.302.8-1.582 1.57-.192.53-.175 1.071-.033 1.609.22.846.741 1.43 1.564 1.731a3.134 3.134 0 0 0 1.851.087c.268-.066.527-.163.79-.246.056-.017.083-.056.091-.118.013-.12.037-.241.056-.362l.096-.62a12.327 12.327 0 0 0-.162-.043.528.528 0 0 0-.025.078Z"
              fill="#000"
            ></path>
            <path
              d="M139.915 50.562c-.127.312-.329.547-.672.617-.448.09-.899.09-1.344-.016-.253-.061-.371-.216-.396-.476a2.557 2.557 0 0 1-.012-.215V47.16c0-.071.005-.143.015-.214.026-.19.13-.3.318-.334.074-.012.148-.013.222-.02a2.39 2.39 0 0 1 .1-.004v-.18h-2.024v.176c.105.01.21.013.311.028.199.03.302.131.333.329a1.6 1.6 0 0 1 .014.24c.002 1.17.002 2.339 0 3.508 0 .047 0 .096-.003.143-.019.275-.155.416-.431.443-.073.007-.146.007-.223.011v.18c.023.002.036.004.051.004 1.215 0 2.432 0 3.647.002.064 0 .079-.03.091-.081.052-.223.108-.446.162-.668l.084-.364-.154-.027-.089.23Z"
              fill="#000"
            ></path>
            <path
              d="M127.656 46.594c.141-.004.141-.004.134-.145-.001-.013-.006-.027-.01-.047h-1.875c-.168 0-.171.001-.138.18.101.01.205.014.307.03.191.03.289.126.325.316.014.07.016.142.016.213v3.58c0 .054 0 .107-.005.16-.022.23-.128.345-.353.381a1.32 1.32 0 0 1-.222.017c-.063-.002-.087.022-.08.083.004.033.004.068.005.102h2.026v-.184h-.126c-.403-.015-.53-.143-.531-.549v-3.597c0-.4.129-.53.527-.54Z"
              fill="#000"
            ></path>
            <path
              d="M122.124 58.913a9.722 9.722 0 0 1-.538-.696c-.283-.405-.553-.82-.828-1.231.138-.069.275-.122.396-.2.405-.26.629-.625.599-1.116-.03-.507-.307-.84-.767-1.03-.284-.116-.584-.146-.889-.146l-1.944.001c-.023 0-.044.005-.065.007v.181c.066 0 .127-.004.186 0 .322.024.446.153.454.475l.001.087v.795c0 .911.001 1.823-.001 2.733 0 .329-.156.487-.484.5-.05.003-.103 0-.156 0v.18h1.976v-.18h-.109c-.4-.006-.53-.138-.53-.54-.002-.507 0-1.013 0-1.52 0-.03.002-.062.005-.102.183 0 .36.004.537 0 .075-.003.12.02.159.086.155.257.315.51.478.762.322.502.652.999 1.05 1.445a.16.16 0 0 0 .135.059c.303-.004.604-.002.906-.002h.144v-.175c-.077-.013-.148-.017-.218-.036a.96.96 0 0 1-.497-.337Zm-1.487-2.288a1.159 1.159 0 0 1-.699.256c-.141.008-.284-.01-.425-.015-.065-.002-.09-.027-.088-.097.003-.32.001-.639.001-.96 0-.32.001-.64-.001-.96-.002-.067.02-.089.085-.097.268-.038.532-.043.795.03.393.108.627.362.691.765.067.419-.018.793-.359 1.078Z"
              fill="#000"
            ></path>
            <path
              d="M102.935 56.988a1.823 1.823 0 0 0-.835-.195c.166-.066.319-.114.463-.184.295-.143.53-.35.628-.676.156-.518-.09-1.02-.607-1.248-.343-.151-.705-.19-1.073-.19h-1.604c-.02 0-.039.004-.065.008v.09l.004.09c.062 0 .114-.002.166 0 .347.02.473.15.477.497v3.613c0 .294-.148.452-.442.477-.066.005-.132.001-.198.001v.18c.153 0 .302-.002.45 0 .512.003 1.022.012 1.535.008.389-.004.769-.061 1.125-.234.583-.282.855-.856.683-1.453-.109-.372-.369-.616-.707-.784Zm-1.746-2.249c.322-.02.641-.04.942.099.216.099.331.28.375.505.045.238.045.48-.014.717-.097.392-.336.611-.737.66-.183.025-.369.022-.566.032v-2.013Zm1.718 3.774a.962.962 0 0 1-.871.706 2.418 2.418 0 0 1-.553-.028c-.179-.027-.262-.139-.284-.318a1.608 1.608 0 0 1-.014-.183v-1.632c0-.025.004-.051.006-.087.336.005.661-.02.981.066.404.11.65.368.738.776.048.233.063.468-.003.7Z"
              fill="#000"
            ></path>
            <path
              d="M115.714 58.445a2.219 2.219 0 0 1-.179.358.823.823 0 0 1-.607.397c-.393.056-.79.053-1.183.015-.275-.025-.377-.14-.423-.415-.007-.046-.015-.092-.015-.138-.005-.521-.008-1.043-.011-1.563 0-.016.004-.033.006-.06h.393c.221 0 .443-.004.664.004.292.011.411.125.454.415.012.085.018.171.027.255.139.017.136.016.136-.115l-.007-1.413c0-.014-.003-.028-.005-.04-.122-.022-.122-.022-.14.092-.057.355-.235.506-.593.508h-.846c-.027 0-.055-.004-.079-.005-.005-.015-.009-.02-.009-.025l-.002-1.93c0-.053.026-.062.071-.062.346.005.691-.001 1.037.016.438.022.691.224.815.626.022.071.036.146.053.217.138-.012.138-.012.138-.137v-.821c0-.13 0-.127-.125-.127h-3.28c-.022 0-.044.002-.07.005v.171c.127.014.246.02.363.041.178.033.261.117.285.294.015.115.021.231.021.348v3.1c0 .117-.001.233-.01.35-.027.348-.137.453-.487.468l-.171.008v.183h.098c.162-.002.326-.01.488-.008 1.006.002 2.013.006 3.018.012.075 0 .104-.019.122-.095.049-.22.109-.44.167-.659.03-.112.066-.221.099-.336-.023-.005-.042-.006-.057-.012-.087-.034-.124-.004-.156.078Z"
              fill="#000"
            ></path>
            <path
              d="M110.154 54.5c-.354 0-.709.002-1.064 0-.158-.002-.16-.005-.141.156 0 .005.005.01.014.026h.148c.055.003.111.005.165.015.154.027.214.124.159.271a1.09 1.09 0 0 1-.129.247c-.335.465-.674.926-1.012 1.39-.014.019-.032.036-.05.059-.019-.023-.033-.038-.044-.054-.316-.445-.635-.89-.948-1.338a2.681 2.681 0 0 1-.207-.342c-.062-.121-.021-.194.111-.223.082-.017.165-.022.248-.034v-.17h-1.839v.177l.11.007c.193.015.365.054.492.23.497.697 1.002 1.386 1.503 2.08a.2.2 0 0 1 .034.103c.001.571.003 1.141 0 1.712-.001.301-.131.436-.431.46l-.205.01v.176h1.975v-.183h-.119c-.389-.01-.518-.138-.519-.525-.003-.585-.001-1.17.001-1.755 0-.038.012-.082.035-.112.463-.63.93-1.26 1.396-1.887.126-.172.275-.31.508-.314V54.5h-.191Z"
              fill="#000"
            ></path>
            <path
              d="M127.074 57.028c-.209-.14-.434-.257-.656-.378-.241-.13-.486-.247-.69-.438-.415-.388-.333-1.057-.049-1.347.248-.253.554-.291.88-.218.344.077.542.308.63.642.035.133.035.133.176.108.003-.005.007-.01.006-.014a59.164 59.164 0 0 0-.104-.849c-.002-.017-.031-.04-.051-.043-.082-.018-.166-.03-.249-.043-.27-.043-.541-.077-.816-.046-.718.079-1.175.495-1.262 1.18-.057.444.036.853.363 1.184.209.21.465.346.722.483.243.129.495.247.699.439a.978.978 0 0 1 .144 1.25c-.258.378-.8.516-1.222.308-.356-.175-.551-.479-.666-.844-.041-.13-.045-.132-.186-.102-.001.01-.005.022-.004.033.042.315.083.629.13.942.004.029.039.065.067.077.325.147.668.218 1.024.217.373 0 .723-.094 1.043-.295.811-.512.849-1.72.071-2.246Z"
              fill="#000"
            ></path>
            <path
              d="M76.207 44.918c-.277-.07-.557-.124-.84-.185.014-.04.016-.059.023-.061.114-.034.227-.074.343-.097 1.943-.392 3.125-1.573 3.447-3.518.356-2.146.37-4.312-.004-6.458-.285-1.643-1.078-2.982-2.658-3.717-.975-.454-2.019-.57-3.079-.572-3.104-.003-6.209-.001-9.313-.001h-.447v29.475h3.89c2.212-.002 4.424.025 6.635-.013 2.808-.048 4.553-1.424 5.1-4.141.48-2.386.414-4.814.08-7.215-.256-1.84-1.352-3.03-3.177-3.497Zm-7.304-10.153c1.232 0 2.416-.048 3.594.016.805.043 1.294.59 1.483 1.36.1.41.16.84.17 1.263.022.907.022 1.815-.015 2.72-.016.38-.115.766-.238 1.128-.182.537-.57.978-1.126 1.03-1.276.122-2.561.143-3.87.205.002-2.656.002-5.197.002-7.722Zm5.31 18.85c-.09 1.199-.723 1.713-1.928 1.776-1.036.054-2.078.02-3.117.03-.198.002-.29-.061-.29-.275.007-2.737.009-5.474.014-8.21 0-.025.017-.049.04-.11 1.185 0 2.358-.06 3.523.018 1.09.072 1.748.735 1.818 1.979.085 1.592.06 3.202-.06 4.793Z"
              fill="#000"
            ></path>
            <path
              d="M60.902 40.824c-.055-1.983.012-3.173-.19-5.089-.284-2.694-1.822-4.54-4.419-5.459-2-.706-4.056-.74-6.107-.273-2.084.475-3.736 1.572-4.713 3.519-.596 1.188-.776 2.462-.776 3.77-.001 5.087-.003 10.175.002 15.262 0 .52.01 1.043.072 1.558.328 2.727 1.711 4.695 4.351 5.666 2.332.857 4.715.844 7.073.094 1.76-.56 3.096-1.656 3.908-3.326.551-1.131.74-2.338.746-3.577.007-1.67.002-1.984 0-3.653 0-.127-.015-.255-.023-.38H55.55v.43c-.002 1.403.016 1.451-.012 2.853a8.456 8.456 0 0 1-.197 1.664c-.289 1.29-1.145 1.954-2.477 1.99-1.347.038-2.25-.558-2.593-1.831a7.933 7.933 0 0 1-.251-2.016c-.021-4.646-.018-9.292-.003-13.94.003-.61.06-1.23.191-1.825.287-1.315 1.156-1.991 2.492-2.027 1.338-.037 2.216.578 2.604 1.837.074.241.148.494.155.743.04 1.426.063 2.102.09 3.529.003.154 0 .308 0 .48l5.353.001Z"
              fill="#000"
            ></path>
            <path
              d="M42.194 34.679c-.341-1.843-1.188-3.344-3.045-3.946-.838-.271-1.755-.39-2.638-.405-3.134-.047-6.27-.018-9.406-.018h-.406V59.75h5.137V48.89c.82 0 1.582.011 2.343-.002 1.29-.024 2.59.033 3.866-.117 1.95-.23 3.312-1.333 3.893-3.266.232-.771.4-1.59.422-2.392.06-2.214.043-4.431.026-6.647a10.35 10.35 0 0 0-.192-1.787Zm-4.977 7.103c-.01.486-.1.983-.228 1.454-.195.71-.698 1.176-1.416 1.21-1.219.059-2.441.017-3.715.017v-9.708c.044-.022.078-.051.112-.053 1.08-.002 2.161-.04 3.237.01 1.15.054 1.746.642 1.928 1.793a6.7 6.7 0 0 1 .09.995c.008 1.428.022 2.855-.008 4.282Z"
              fill="#000"
            ></path>
            <path
              d="M23.765 30.302h-5.362l-5.943 13.35v-13.35H7v29.45h5.504v-8.441l1.902-3.865 3.997 12.307h5.7l-5.99-17.119 5.652-12.332Z"
              fill="#000"
            ></path>
            <path
              d="M90.11 29.572h-.662v30.222h.663V29.572Z"
              fill="#000"
            ></path>
          </svg>