   <svg
            fill="none"
            height="90"
            viewBox="0 0 150 90"
            width="154"
            xmlns="http://www.w3.org/2000/svg"
          >
            <g fill="#000">
              <path d="m111.326 32.268a.44.44 0 0 1 -.442-.44v-1.778a.44.44 0 0 1 .442-.44h11.774c.242 0 .465.218.465.44v1.776c0 .245-.223.441-.465.441h-11.774zm-.734 5.63a.438.438 0 0 1 -.438-.442v-1.776a.45.45 0 0 1 .438-.438h13.192a.45.45 0 0 1 .438.438v1.777c0 .242-.193.441-.438.441h-2.344v7.55c0 .931-.761 1.659-1.688 1.659h-6.399a.433.433 0 0 1 -.439-.435v-1.562c0-.245.192-.438.439-.438h4.835v-6.775h-7.596zm-8.404 2.315c-.191 0-.314-.075-.314-.194 0-.04.014-.077.075-.15l3.564-4.411c.27-.316.343-.389.589-.389h2.782c.147 0 .243.073.243.221 0 .07-.022.121-.07.196l-2.909 3.63h1.319v7.555c0 .218-.22.435-.442.435h-2.292c-.245 0-.465-.193-.465-.435v-6.458zm0-5.63c-.215 0-.314-.074-.314-.2l.046-.119 3.593-4.435c.27-.338.343-.389.588-.389h2.783c.147 0 .243.076.243.193a.38.38 0 0 1 -.081.239l-3.632 4.511c-.119.15-.22.2-.488.2z"></path>
              <path d="m96.602 40.43c.27-.292.365-.365.585-.365h2.099c.27 0 .392.043.392.195 0 .073-.073.17-.22.34l-2.76 3.166.196.316c.315.538.365.612.486.736.172.172.268.194.835.194h1.147c.219 0 .436.217.436.435v1.224c0 .215-.217.434-.436.434h-1.714c-1.488 0-2.268-.364-2.856-1.313l-3.076-5.264a.558.558 0 0 1 -.1-.268c0-.122.077-.195.243-.195h2.276c.32 0 .387.073.633.463l.735 1.217 1.099-1.316zm-6.353-4.95v1.56h6.449v-1.56h-6.45zm6.449-3.675h-6.45v1.56h6.45zm-6.45 13.207h2.173c.245 0 .468.196.468.435v1.224c0 .215-.223.434-.468.434h-3.225c-.924 0-1.684-.753-1.684-1.658v-14.18c0-.9.76-1.657 1.684-1.657h8.602c.926 0 1.66.756 1.66 1.657v6.265c0 .925-.734 1.681-1.66 1.681h-7.55v5.8zm-6.981-5.68h2.61c.243 0 .464.195.464.441v1.461c0 .242-.215.441-.464.441h-2.61v3.337h2.073c.218 0 .44.196.44.435v1.224c0 .215-.222.434-.44.434h-3.25a1.676 1.676 0 0 1 -1.661-1.658v-3.772h-2.126a.44.44 0 0 1 -.439-.44v-1.462c0-.246.197-.44.44-.44h2.125v-1.926h-2.126a.435.435 0 0 1 -.439-.435v-1.492c0-.24.197-.435.44-.435h7.572c.243 0 .464.196.464.435v1.492c0 .242-.221.435-.464.435h-2.61v1.926zm2.61-8.43c.243 0 .464.196.464.441v1.485c0 .22-.221.435-.464.435h-4.886l-.341.587c-.196.367-.27.414-.635.414h-2.245c-.295 0-.369-.047-.369-.172 0-.047.023-.12.1-.242l2.222-4.022c.17-.315.246-.387.514-.387h2.438c.246 0 .346.05.346.145 0 .07-.024.147-.076.242l-.611 1.075h3.543z"></path>
              <path d="m60.282 38.9c0 1.197.074 1.293 1.439 1.95l2.593 1.173 2.585-1.173c1.392-.68 1.445-.753 1.445-1.95v-.851h-8.062zm2.322-9.67c0-.267.193-.466.439-.466h2.513c.247 0 .442.199.442.466v.876h7.036c1.122 0 2.049.924 2.049 2.069v1.246a.431.431 0 0 1 -.439.434h-1.658a.434.434 0 0 1 -.442-.434v-1.097h-16.486v1.097a.434.434 0 0 1 -.442.434h-1.635c-.245 0-.467-.19-.467-.434v-1.246c0-1.145.955-2.07 2.102-2.07h6.988zm-8.822 8.819c-.267 0-.464-.193-.464-.438v-1.561c0-.242.197-.435.464-.435h3.399v-1.465c0-.245.193-.438.438-.438h2.198c.27 0 .465.193.465.438v1.465h8.062v-1.441c0-.27.193-.462.46-.462h2.2c.242 0 .441.193.441.462v1.441h3.273c.245 0 .441.193.441.435v1.561a.437.437 0 0 1 -.441.438h-3.273v.904c0 2.022-.588 2.724-3.178 3.899l-1.073.487.196.073c1.319.583 2.344.828 3.467.805h3.442c.245 0 .441.215.441.46v1.536a.437.437 0 0 1 -.441.438h-3.442c-1.783-.024-2.686-.24-4.74-1.172l-1.803-.802-1.81.803c-2.148.954-2.832 1.12-4.737 1.17h-3.446a.433.433 0 0 1 -.435-.437v-1.536c0-.245.191-.46.435-.46h3.446c1.1 0 2.343-.293 3.469-.805l.193-.073-1.073-.487c-2.638-1.22-3.126-1.83-3.175-3.9v-.903z"></path>
              <path d="m46.9 33.605h2.467c.208 0 .29.085.294.216 0 .053-.042.157-.123.32l-2.515 4.92c-.172.344-.298.417-.807.417h-2.49c-.197 0-.293-.073-.293-.222 0-.046 0-.096.12-.315l2.543-4.926c.144-.315.316-.41.804-.41zm-9.282 5.336c.098.167.122.269.122.315 0 .15-.097.222-.292.222h-2.492c-.514 0-.636-.073-.807-.418l-2.543-4.92c-.047-.125-.093-.244-.093-.319 0-.143.093-.216.292-.216h2.464c.492 0 .635.073.808.41l2.54 4.926zm-7.378 4.481a.447.447 0 0 1 -.462-.463v-1.582a.46.46 0 0 1 .462-.463h8.623v-8.751h-7.962c-.246 0-.44-.215-.44-.46v-1.513c0-.245.194-.438.44-.438h19.321c.246 0 .439.193.439.438v1.512c0 .245-.193.46-.439.46h-7.938v8.751h8.693c.27 0 .464.218.464.463v1.582a.448.448 0 0 1 -.465.463h-8.692v3.316c0 .245-.219.437-.466.437h-2.513a.436.436 0 0 1 -.442-.438v-3.315h-8.623z"></path>
              <path d="m87.552 53.64c0-.413.316-.734.734-.734h2.985c.947 0 1.693.26 2.167.735.363.364.553.814.553 1.371v.024c0 .992-.568 1.52-1.184 1.84.97.334 1.648.888 1.648 2.012v.022c0 1.477-1.219 2.27-3.069 2.27h-3.1a.721.721 0 0 1 -.734-.731zm3.42 2.753c.937 0 1.562-.365 1.562-1.12v-.025c0-.65-.52-1.053-1.456-1.053h-2.093v2.198h1.988zm.428 3.498c.993 0 1.597-.394 1.597-1.132v-.027c0-.7-.556-1.111-1.705-1.111h-2.307v2.27zm4.23.344 3.076-6.854c.17-.368.463-.592.88-.592h.068c.417 0 .702.224.865.592l3.079 6.854a.678.678 0 0 1 -.603 1c-.344 0-.581-.2-.71-.507l-.678-1.546h-4.023l-.7 1.592a.699.699 0 0 1 -.675.462.665.665 0 0 1 -.675-.674.71.71 0 0 1 .096-.327zm5.425-2.343-1.457-3.341-1.462 3.341zm4.206-4.298c0-.406.316-.732.734-.732h.153c.356 0 .558.175.757.423l4.142 5.355v-5.081a.71.71 0 0 1 .711-.708.71.71 0 0 1 .722.708v6.945c0 .402-.304.72-.71.72h-.058c-.343 0-.555-.178-.754-.438l-4.264-5.502v5.242c0 .392-.322.71-.709.71a.711.711 0 0 1 -.723-.71v-6.932zm9.357-.023c0-.405.318-.72.733-.72.404 0 .723.315.723.72v3.498l3.933-3.948a.742.742 0 0 1 .602-.27c.404 0 .675.315.675.67 0 .224-.096.389-.261.546l-2.581 2.48 2.795 3.46c.117.155.202.295.202.52 0 .406-.321.709-.736.709-.285 0-.46-.14-.612-.342l-2.67-3.39-1.347 1.298v1.714c0 .402-.319.72-.723.72a.718.718 0 0 1 -.733-.72v-6.946z"></path>
              <path d="m52.573 52.815h-1.255a.2.2 0 0 0 -.199.196v5.704c-.651-.741-4.985-5.64-5.093-5.753a.504.504 0 0 0 -.37-.147h-1.246a.197.197 0 0 0 -.196.196v7.877c0 .11.088.199.196.199h1.257c.108 0 .196-.09.196-.199v-5.747c.473.53 5.026 5.677 5.136 5.798a.51.51 0 0 0 .375.148h1.199c.107 0 .196-.09.196-.199v-7.877a.197.197 0 0 0 -.196-.196zm7.248-.113h-2.89c-1.566 0-2.834 1.126-2.834 2.514v3.467c0 1.388 1.267 2.511 2.835 2.511h2.889c1.564 0 2.835-1.123 2.835-2.51v-2.227h-4.384v1.167c0 .11.09.202.197.202h2.404v1.604a.202.202 0 0 1 -.202.196h-4.591a.197.197 0 0 1 -.197-.196v-4.964c0-.108.089-.194.197-.194h4.592c.108 0 .196.086.196.194v.949a.2.2 0 0 0 .203.201h1.386c.113 0 .2-.088.2-.201v-.2c0-1.387-1.27-2.513-2.835-2.513zm23.925.113h-1.252a.197.197 0 0 0 -.199.196v5.704c-.654-.741-4.982-5.64-5.09-5.753a.527.527 0 0 0 -.377-.147h-1.24a.202.202 0 0 0 -.201.196v7.877c0 .11.094.199.202.199h1.251c.11 0 .2-.09.2-.199v-5.747c.472.53 5.022 5.677 5.132 5.798a.515.515 0 0 0 .378.148h1.196a.2.2 0 0 0 .202-.199v-7.877a.198.198 0 0 0 -.202-.196zm-13.105.217c-.075-.138-.203-.232-.356-.232h-1.24c-.155 0-.281.094-.359.232l-3.895 7.658c-.129.246-.021.394.211.394h1.237c.175 0 .245-.043.336-.215l3.09-6.163 3.09 6.163c.094.172.159.215.337.215h1.236c.23 0 .343-.148.214-.394l-3.9-7.658zm-32.885 3.877c0 .11-.089.198-.2.198h-4.236v-2.835h4.236c.111 0 .2.086.2.194v2.442zm-.945-4.094h-5.103a.195.195 0 0 0 -.195.196v7.877c0 .11.087.199.195.199h1.416c.108 0 .196-.09.196-.199v-2.321h3.491c1.567 0 2.835-.926 2.835-2.314v-.922c0-1.392-1.268-2.516-2.835-2.516zm5.645 0h-1.4a.198.198 0 0 0 -.196.196v7.877a.2.2 0 0 0 .196.199h1.4a.2.2 0 0 0 .2-.199v-7.877a.2.2 0 0 0 -.2-.196z"></path>
              <path d="m70.732 58.613h-2.132a.2.2 0 0 0 -.196.199v2.076c0 .11.089.196.196.196h2.132a.196.196 0 0 0 .196-.196v-2.076a.2.2 0 0 0 -.196-.2z"></path>
            </g>
          </svg>