   <svg
            fill="none"
            height="90"
            viewBox="0 0 150 90"
            width="154"
            xmlns="http://www.w3.org/2000/svg"
          >
            <path
              d="m11.104 35.25v6.517h26.111v-6.517h-26.112zm0 12.983v6.517h26.111v-6.517h-26.112z"
              fill="#bbbcbe"
            ></path>
            <path
              d="m51.849 35.25c-2.036 0-3.432.503-4.368 1.244-1.102.85-1.571 1.997-1.571 3.134 0 .978.316 1.85.785 2.536.756 1.085 2.924 2.265 4.516 3.085 1.512.766 2.943 1.385 3.78 2.387.547.66.834 1.332.834 2.388 0 1.19-.519 2.1-1.326 2.736-.81.637-1.941.995-3.14.995-2.765 0-4.22-.828-5.056-4.079l-.933.249c.342 1.162.646 2.29.884 3.93 1.51.555 3.345.895 4.859.895 2.322 0 4.06-.688 5.153-1.691.992-.9 1.473-2.107 1.473-3.482 0-1.296-.581-2.5-1.13-3.134-1.122-1.296-2.626-1.928-4.662-2.985-1.643-.846-2.662-1.429-3.338-2.09-.494-.475-.883-1.349-.883-2.089 0-.82.306-1.51.933-2.04.73-.63 1.788-.994 3.092-.994 3.08 0 3.624.959 4.172 3.681l.932-.249a76.17 76.17 0 0 1 -.638-3.68c-1.333-.526-2.697-.747-4.368-.747zm37.302.348v.796c1.954 0 2.11.135 2.11 2.04v13.182c0 1.876-.156 1.99-2.11 1.99v.746h8.491c2.714 0 4.235-.639 5.252-1.641 1.043-1.005 1.473-2.31 1.473-3.632 0-1.455-.729-2.495-1.669-3.233-1.121-.876-2.621-1.34-4.32-1.393v-.05c1.644-.239 2.753-.78 3.534-1.492.966-.874 1.277-2.032 1.277-3.035 0-1.349-.678-2.395-1.669-3.084-1.41-.955-2.951-1.194-5.35-1.194h-7.02zm-10.847.448c-1.15 0-2.028.438-2.65 1.045-.862.899-1.276 2.119-1.276 3.73v1.642h-1.915v.846h1.915v8.605c0 1.616-.138 1.791-1.964 1.791v.647h5.841v-.647c-1.957 0-2.061-.153-2.061-1.74v-8.656h3.288v-.846h-3.288v-1.542c0-1.878.312-2.85.834-3.482.363-.398.754-.597 1.276-.597.809 0 1.137.561 1.424 1.144.288.583.555 1.144 1.177 1.144.474 0 .737-.265.737-.796 0-.475-.373-1.138-1.13-1.641-.525-.345-1.14-.647-2.208-.647zm55.659 0c-.964.607-1.863.907-3.141 1.094v.547c1.409 0 1.57.21 1.57 1.742v12.535c0 1.532-.057 1.741-1.57 1.741v.647h4.859v-.647c-1.435 0-1.473-.209-1.473-1.74v-2.786l1.424-1.493 4.27 6.666h2.994v-.647c-.782.026-1.388-.067-1.963-.994l-3.976-6.12 2.749-2.685c.598-.583 1.013-.77 1.767-.796v-.647h-3.878v.647c1.255 0 1.096.434.393 1.094l-3.731 3.681h-.048v-11.69zm-40.002.597h2.503c1.828 0 2.996.386 3.731.995.571.475.981 1.538.981 2.437 0 1.268-.424 2.201-1.178 2.836-.942.794-2.422 1.144-4.22 1.144h-2.602v-6.517c0-.714.11-.895.785-.895zm-10.258 2.487c-.338 2.774-1.447 3.423-3.092 3.582v.597h1.963v8.655c0 2.064 1.223 2.687 2.552 2.687 1.069 0 1.875-.339 2.553-.946l-.393-.597c-.524.398-1.015.647-1.62.647-.91 0-1.276-.65-1.276-1.89v-8.556h2.749v-.846h-2.749v-3.333zm-18.356 3.034c-1.671 0-2.91.488-3.927 1.443-1.043 1.029-1.57 2.688-1.57 4.776 0 2.407.602 3.997 1.619 4.974 1.044.925 2.315 1.294 3.878 1.294 1.643 0 2.884-.395 3.926-1.344.993-.979 1.62-2.543 1.62-4.924 0-2.088-.601-3.693-1.62-4.726-1.017-.98-2.181-1.492-3.926-1.492zm45.498 0c-1.38 0-2.265.349-2.945.747-.836.501-1.374 1.206-1.374 1.84 0 .4.24.796.736.796.548 0 .803-.276.933-.646.238-.584.446-1.031.785-1.294.469-.374.984-.597 1.767-.597.862 0 1.477.267 1.865.796.342.45.442 1.234.442 1.84v1.145l-1.521.348c-1.671.368-2.989.933-3.878 1.542-1.146.764-1.62 1.72-1.62 2.935 0 1.005.405 1.735 1.031 2.239.679.555 1.569.796 2.405.796 1.722 0 2.747-.595 3.632-1.443h.098c.238.87.809 1.343 1.718 1.343a3.38 3.38 0 0 0 1.571-.348l-.147-.647c-.208.132-.43.2-.688.2-.52 0-.785-.502-.785-1.692v-6.218c0-1.162-.208-1.869-.883-2.637-.654-.738-1.575-1.045-3.142-1.045zm9.62 0c-.861.635-1.751.91-2.895 1.095v.597c1.38-.026 1.521.16 1.521 1.691v6.417c0 1.588-.116 1.741-1.521 1.741v.647h4.564v-.647c-1.227 0-1.276-.153-1.276-1.74v-6.368c1.045-1.457 2.242-2.487 3.338-2.487.703 0 1.18.205 1.521.547.495.531.589 1.357.589 2.388v5.92c0 1.587-.07 1.74-1.325 1.74v.647h4.417v-.647c-1.174 0-1.276-.21-1.276-1.691v-6.069c0-1.399-.332-2.352-.932-2.935-.574-.555-1.382-.846-2.504-.846-1.435 0-2.783.842-3.828 2.19h-.049l-.098-2.04zm-55.168.846c1.098 0 2.001.352 2.602 1.095.703.925 1.08 2.24 1.08 4.278 0 2.14-.478 3.48-1.13 4.328-.598.686-1.407 1.144-2.502 1.144-1.096 0-1.956-.458-2.553-1.144-.652-.848-1.08-2.187-1.08-4.328 0-2.038.38-3.353 1.08-4.278.625-.743 1.46-1.095 2.503-1.095zm27.879 2.04h3.24c2.135 0 3.602.378 4.515 1.094.934.715 1.423 1.721 1.423 2.885 0 1.377-.404 2.376-1.03 3.035-.888.927-2.074 1.293-3.927 1.293h-3.24c-.808 0-.981-.185-.981-1.293zm19.878 2.537v4.676c-.654.658-1.518 1.393-2.798 1.393-.781 0-1.374-.273-1.767-.647-.392-.394-.539-.951-.539-1.642 0-1.213.702-1.934 1.717-2.487.964-.607 2.264-.977 3.387-1.293z"
              fill="#000"
            ></path>
          </svg>